<svg xmlns="http://www.w3.org/2000/svg" xmlns:xlink="http://www.w3.org/1999/xlink" width="500" zoomAndPan="magnify" viewBox="0 0 375 374.999991" height="500" preserveAspectRatio="xMidYMid meet" version="1.0"><defs><clipPath id="047cc45017"><path d="M 37.5 108.449219 L 337.5 108.449219 L 337.5 280.199219 L 37.5 280.199219 Z M 37.5 108.449219 " clip-rule="nonzero"/></clipPath></defs><rect x="-37.5" width="450" fill="#ffffff" y="-37.499999" height="449.999989" fill-opacity="1"/><rect x="-37.5" width="450" fill="#120037" y="-37.499999" height="449.999989" fill-opacity="1"/><g clip-path="url(#047cc45017)"><path fill="#a274ff" d="M 38.570312 116.476562 L 134.824219 277.617188 C 135.78125 279.21875 137.507812 280.203125 139.375 280.203125 C 141.238281 280.203125 142.96875 279.21875 143.925781 277.617188 L 187.5 204.667969 L 231.074219 277.617188 C 232.03125 279.21875 233.761719 280.203125 235.628906 280.203125 C 237.492188 280.203125 239.21875 279.21875 240.175781 277.617188 L 336.429688 116.476562 C 337.410156 114.835938 337.429688 112.796875 336.488281 111.136719 C 335.550781 109.472656 333.785156 108.445312 331.878906 108.445312 L 283.203125 108.445312 C 281.320312 108.445312 279.578125 109.445312 278.628906 111.066406 L 240.46875 176.183594 C 238.984375 178.710938 239.832031 181.960938 242.359375 183.445312 C 244.882812 184.929688 248.132812 184.082031 249.613281 181.554688 L 286.238281 119.0625 L 322.53125 119.0625 L 235.628906 264.550781 L 193.675781 194.324219 L 240.175781 116.476562 C 241.160156 114.835938 241.179688 112.796875 240.238281 111.136719 C 239.296875 109.472656 237.535156 108.445312 235.628906 108.445312 L 186.949219 108.445312 C 185.070312 108.445312 183.328125 109.445312 182.378906 111.066406 L 144.214844 176.183594 C 142.734375 178.710938 143.582031 181.960938 146.105469 183.445312 C 148.632812 184.929688 151.882812 184.082031 153.363281 181.554688 L 189.988281 119.0625 L 226.277344 119.0625 L 182.964844 191.574219 C 182.949219 191.597656 182.933594 191.621094 182.921875 191.644531 L 139.375 264.550781 L 52.472656 119.0625 L 130.453125 119.0625 L 119.789062 138.6875 C 118.390625 141.257812 119.339844 144.484375 121.914062 145.882812 C 124.484375 147.285156 127.707031 146.332031 129.105469 143.757812 L 144.03125 116.292969 C 144.925781 114.648438 144.886719 112.652344 143.933594 111.042969 C 142.976562 109.433594 141.246094 108.445312 139.375 108.445312 L 43.121094 108.445312 C 41.214844 108.445312 39.453125 109.472656 38.507812 111.136719 C 37.566406 112.796875 37.589844 114.835938 38.570312 116.476562 " fill-opacity="1" fill-rule="nonzero"/></g></svg>